<?xml version="1.0" encoding="UTF-8"?>
<svg xmlns="http://www.w3.org/2000/svg" xmlns:xlink="http://www.w3.org/1999/xlink"
     width="268" height="164" viewBox="0 0 268 164">
<defs>
</defs>
<rect x="0" y="0" width="268" height="164" fill="#fafaf9" />
<text x="28" y="24" font-size="14" font-family="ui-monospace, 'SF Mono', 'Cascadia Mono', Menlo, monospace" fill="#1f2937" font-weight="bold">(B) descending staircase — works, but card thickness scales with gear count</text>
<path d="M4,40 L264,40" stroke="#d1d5db" stroke-width="0.5" stroke-dasharray="2,2" />
<text x="2" y="39" font-size="9" font-family="ui-monospace, 'SF Mono', 'Cascadia Mono', Menlo, monospace" fill="#6b7280">L0</text>
<path d="M4,50 L264,50" stroke="#d1d5db" stroke-width="0.5" stroke-dasharray="2,2" />
<text x="2" y="49" font-size="9" font-family="ui-monospace, 'SF Mono', 'Cascadia Mono', Menlo, monospace" fill="#6b7280">L1</text>
<path d="M4,60 L264,60" stroke="#d1d5db" stroke-width="0.5" stroke-dasharray="2,2" />
<text x="2" y="59" font-size="9" font-family="ui-monospace, 'SF Mono', 'Cascadia Mono', Menlo, monospace" fill="#6b7280">L2</text>
<path d="M4,70 L264,70" stroke="#d1d5db" stroke-width="0.5" stroke-dasharray="2,2" />
<text x="2" y="69" font-size="9" font-family="ui-monospace, 'SF Mono', 'Cascadia Mono', Menlo, monospace" fill="#6b7280">L3</text>
<path d="M4,80 L264,80" stroke="#d1d5db" stroke-width="0.5" stroke-dasharray="2,2" />
<text x="2" y="79" font-size="9" font-family="ui-monospace, 'SF Mono', 'Cascadia Mono', Menlo, monospace" fill="#6b7280">L4</text>
<path d="M4,90 L264,90" stroke="#d1d5db" stroke-width="0.5" stroke-dasharray="2,2" />
<text x="2" y="89" font-size="9" font-family="ui-monospace, 'SF Mono', 'Cascadia Mono', Menlo, monospace" fill="#6b7280">L5</text>
<rect x="45.4" y="36.0" width="1.2" height="18.0" fill="#4b5563" stroke="none" />
<rect x="28" y="38.0" width="36" height="4" fill="#b8a169" stroke="#1f2937" stroke-width="0.6" />
<rect x="44" y="40" width="4" height="10" fill="#8a8a8a" stroke="#1f2937" stroke-width="0.6" />
<rect x="41" y="48.0" width="10" height="4" fill="#d4b876" stroke="#1f2937" stroke-width="0.6" />
<text x="46" y="65.0" font-size="11" text-anchor="middle" font-family="ui-monospace, 'SF Mono', 'Cascadia Mono', Menlo, monospace" fill="#1f2937">G1</text>
<rect x="89.4" y="46.0" width="1.2" height="18.0" fill="#4b5563" stroke="none" />
<rect x="72" y="48.0" width="36" height="4" fill="#b8a169" stroke="#1f2937" stroke-width="0.6" />
<rect x="88" y="50" width="4" height="10" fill="#8a8a8a" stroke="#1f2937" stroke-width="0.6" />
<rect x="85" y="58.0" width="10" height="4" fill="#d4b876" stroke="#1f2937" stroke-width="0.6" />
<text x="90" y="75.0" font-size="11" text-anchor="middle" font-family="ui-monospace, 'SF Mono', 'Cascadia Mono', Menlo, monospace" fill="#1f2937">G2</text>
<rect x="133.4" y="56.0" width="1.2" height="18.0" fill="#4b5563" stroke="none" />
<rect x="116" y="58.0" width="36" height="4" fill="#b8a169" stroke="#1f2937" stroke-width="0.6" />
<rect x="132" y="60" width="4" height="10" fill="#8a8a8a" stroke="#1f2937" stroke-width="0.6" />
<rect x="129" y="68.0" width="10" height="4" fill="#d4b876" stroke="#1f2937" stroke-width="0.6" />
<text x="134" y="85.0" font-size="11" text-anchor="middle" font-family="ui-monospace, 'SF Mono', 'Cascadia Mono', Menlo, monospace" fill="#1f2937">G3</text>
<rect x="177.4" y="66.0" width="1.2" height="18.0" fill="#4b5563" stroke="none" />
<rect x="160" y="68.0" width="36" height="4" fill="#b8a169" stroke="#1f2937" stroke-width="0.6" />
<rect x="176" y="70" width="4" height="10" fill="#8a8a8a" stroke="#1f2937" stroke-width="0.6" />
<rect x="173" y="78.0" width="10" height="4" fill="#d4b876" stroke="#1f2937" stroke-width="0.6" />
<text x="178" y="95.0" font-size="11" text-anchor="middle" font-family="ui-monospace, 'SF Mono', 'Cascadia Mono', Menlo, monospace" fill="#1f2937">G4</text>
<rect x="221.4" y="76.0" width="1.2" height="18.0" fill="#4b5563" stroke="none" />
<rect x="204" y="78.0" width="36" height="4" fill="#b8a169" stroke="#1f2937" stroke-width="0.6" />
<rect x="220" y="80" width="4" height="10" fill="#8a8a8a" stroke="#1f2937" stroke-width="0.6" />
<rect x="217" y="88.0" width="10" height="4" fill="#d4b876" stroke="#1f2937" stroke-width="0.6" />
<text x="222" y="105.0" font-size="11" text-anchor="middle" font-family="ui-monospace, 'SF Mono', 'Cascadia Mono', Menlo, monospace" fill="#1f2937">G5</text>
<text x="28" y="156" font-size="9" font-family="ui-monospace, 'SF Mono', 'Cascadia Mono', Menlo, monospace" fill="#6b7280" font-style="italic">Each gear sits one level below the previous. 5 gears need 6 levels — every additional gear thickens the card by one more gear-plate plus clearance.</text>
</svg>