<?xml version="1.0" encoding="UTF-8"?>
<svg xmlns="http://www.w3.org/2000/svg" xmlns:xlink="http://www.w3.org/1999/xlink"
     width="260" height="220" viewBox="0 0 260 220">
<defs>
</defs>
<rect x="0" y="0" width="260" height="220" fill="#ffffff" />
<text x="40" y="32" font-size="14" font-family="ui-monospace, 'SF Mono', 'Cascadia Mono', Menlo, monospace" fill="#1f2937" font-weight="bold">Two unique parts make a chain of any length</text>
<path d="M4,160 L256,160" stroke="#d1d5db" stroke-width="0.5" stroke-dasharray="2,2" />
<text x="2" y="159" font-size="9" font-family="ui-monospace, 'SF Mono', 'Cascadia Mono', Menlo, monospace" fill="#6b7280">L0</text>
<path d="M4,138 L256,138" stroke="#d1d5db" stroke-width="0.5" stroke-dasharray="2,2" />
<text x="2" y="137" font-size="9" font-family="ui-monospace, 'SF Mono', 'Cascadia Mono', Menlo, monospace" fill="#6b7280">L1</text>
<path d="M4,116 L256,116" stroke="#d1d5db" stroke-width="0.5" stroke-dasharray="2,2" />
<text x="2" y="115" font-size="9" font-family="ui-monospace, 'SF Mono', 'Cascadia Mono', Menlo, monospace" fill="#6b7280">L2</text>
<rect x="69.4" y="132.0" width="1.2" height="34.0" fill="#4b5563" stroke="none" />
<rect x="40" y="156.0" width="60" height="8" fill="#b8a169" stroke="#1f2937" stroke-width="0.6" />
<rect x="66" y="138" width="8" height="22" fill="#8a8a8a" stroke="#1f2937" stroke-width="0.6" />
<rect x="62" y="134.0" width="16" height="8" fill="#d4b876" stroke="#1f2937" stroke-width="0.6" />
<text x="70" y="177.0" font-size="11" text-anchor="middle" font-family="ui-monospace, 'SF Mono', 'Cascadia Mono', Menlo, monospace" fill="#1f2937">standard part</text>
<rect x="189.4" y="110.0" width="1.2" height="56.0" fill="#4b5563" stroke="none" />
<rect x="160" y="112.0" width="60" height="8" fill="#9c7c4f" stroke="#1f2937" stroke-width="0.6" />
<rect x="186" y="116" width="8" height="44" fill="#9c7c4f" stroke="#1f2937" stroke-width="0.6" />
<rect x="182" y="156.0" width="16" height="8" fill="#9c7c4f" stroke="#1f2937" stroke-width="0.6" />
<text x="190" y="177.0" font-size="11" text-anchor="middle" font-family="ui-monospace, 'SF Mono', 'Cascadia Mono', Menlo, monospace" fill="#1f2937">tall-hub variant</text>
<text x="40" y="208" font-size="9" font-family="ui-monospace, 'SF Mono', 'Cascadia Mono', Menlo, monospace" fill="#6b7280" font-style="italic">Standard hub spans 1.3 mm (one gear + one gap). Tall-hub spans 3.6 mm (vaults a level).</text>
</svg>